<?xml version="1.0" encoding="utf-8"?>
<!-- Generator: Adobe Illustrator 22.1.0, SVG Export Plug-In . SVG Version: 6.00 Build 0)  -->
<svg version="1.1" id="Layer_1" xmlns="http://www.w3.org/2000/svg" xmlns:xlink="http://www.w3.org/1999/xlink" x="0px" y="0px"
	 viewBox="0 0 648 181.3" style="enable-background:new 0 0 648 181.3;" xml:space="preserve">
<style type="text/css">
	.st0{fill:#FF5000;}
	.st1{fill:#2E3335;}
	.st2{fill-rule:evenodd;clip-rule:evenodd;fill:#2E3335;}
</style>
<path class="st0" d="M648,150.1C541.2,163,193.8,181.3,84.1,181.3c-109.7,0-85-30.5-73-31.2C21,149.5,648,150.1,648,150.1L648,150.1
	z"/>
<path class="st1" d="M69.9,48.6l-10.1,88.9h27.8L96,78.8c0.4-3.7,1.3-6.4,2.6-8c1.3-1.6,3.2-2.5,5.9-2.5c2.6,0,4.4,0.8,5.3,2.5
	c0.9,1.6,1.1,4.3,0.7,8l-6.7,58.6h27.8l9.4-67c0.6-4.8,0.4-8.8-0.5-11.8c-0.9-3.1-2.2-5.5-4.1-7.4c-1.9-1.9-4.2-3.1-7-3.8
	c-2.6-0.8-5.6-1.2-8.9-1.2c-10.5,0-18.2,4.4-23,13.1h-0.3l0.2-10.8H69.9L69.9,48.6z"/>
<path class="st1" d="M147.5,48.6l-2.3,19.9h9.9l-5.4,47.3c-0.6,4.9-0.6,8.9-0.1,12c0.6,3,1.9,5.2,3.7,6.7c1.9,1.5,4.4,2.5,7.5,3
	c3.1,0.3,7,0.5,11.4,0.5c2.5,0,5.2-0.1,7.9-0.3c2.8-0.1,3.7-0.2,6.4-0.2l4-19.7h-4.6c-2.4,0-4.2-0.5-5.2-1.5c-1-1.1-3.1-2.9-2.8-5.4
	l6.6-42.4h11.7l2.3-19.9H186l2-16.2h-25.6l-5,16.2H147.5L147.5,48.6z"/>
<polygon class="st1" points="334.6,0 364.1,0 346,137.5 317.9,137.5 334.6,0 "/>
<path class="st2" d="M388.1,92.8c0.8-5.6,1.6-10.1,2.4-13.7c0.8-3.6,1.6-6.4,2.6-8.5c1-2,2-3.4,3.1-4.2c1.2-0.7,2.6-1.1,4.3-1
	c1.6,0.1,3,0.5,3.9,1.3c1,0.8,1.6,2.2,1.8,4.3c0.3,2.1,0.4,4.9,0,8.5c-0.3,3.6-0.9,8.2-1.7,13.7c-0.8,5.6-1.6,10.1-2.4,13.7
	c-0.7,3.5-1.6,6.2-2.6,8.3c-0.9,2.1-1.9,3.4-3.1,4.2c-1.2,0.7-2.6,1.1-4.3,1c-1.6-0.1-3-0.5-3.9-1.3c-0.9-0.8-1.5-2.2-1.8-4.3
	c-0.3-2.1-0.4-4.9-0.1-8.4C386.7,102.9,387.3,98.4,388.1,92.8L388.1,92.8z M434.1,93.1c0.7-6.5,1-12.5,0.9-18.1c0-5.7-1-10.7-3.1-15
	c-2-4.3-5.4-7.6-10.2-10c-4.8-2.5-11.5-3.8-20.1-3.8c-8.3,0-15.2,1.4-20.5,4.1c-5.2,2.6-9.4,6.1-12.5,10.5c-3.1,4.4-5.4,9.4-7,14.9
	c-1.4,5.6-2.4,11.3-3.1,17.1c-0.7,6.5-1.1,12.5-1.1,18.2c0.1,5.6,1.2,10.5,3.2,14.8c2,4.2,5.4,7.4,10.2,9.9
	c4.8,2.3,11.5,3.4,20.1,3.4c8.3,0,15.1-1.3,20.3-3.8c5.3-2.6,9.6-6.1,12.7-10.3c3.1-4.4,5.4-9.4,6.8-14.9
	C432.4,104.6,433.5,98.9,434.1,93.1L434.1,93.1z"/>
<path class="st1" d="M440.9,48.6l-2.3,19.9h9.9l-5.4,47.3c-0.6,4.9-0.6,8.9-0.1,12c0.6,3,1.9,5.2,3.7,6.7c1.9,1.5,4.4,2.5,7.5,3
	c3.1,0.3,7,0.5,11.4,0.5c2.5,0,5.2-0.1,7.9-0.3c2.8-0.1,3.7-0.2,6.4-0.2l4-19.7h-4.6c-2.4,0-4.2-0.5-5.3-1.5c-1-1.1-3.1-2.9-2.8-5.4
	l6.6-42.4h11.7l2.3-19.9h-12.7l2-16.2h-25.6l-5,16.2H440.9L440.9,48.6z"/>
<path class="st2" d="M206.3,48.6h27.6l-0.6,14.1c2.6-5.4,5.7-9.4,9.6-12.2c3.9-2.8,12-4.3,16.4-4.3l23,0.1l2.7-0.1
	c5.1,0,9.8,0.4,14,1.3c4.3,0.8,7.8,2.2,10.7,4.4c2.9,2.1,5,5,6.2,8.7c1.3,3.6,1.7,8.3,1,14.1l-4.9,43.4c-0.5,4.2-2.1,16.2-2.4,19.2
	h-25.6c-0.4-1.5-0.6-3.1-0.6-4.8l-0.4-5.3c-2.1,3.9-5.1,6.9-8.9,8.9c-3.7,2-7.9,3-12.5,3c-4.5,0-8.3-0.6-11.3-1.8
	c-2.9-1.1-5.3-2.8-7-5.1c-1.7-2.3-2.8-5-3.3-8.2c-0.5-3.2-0.6-6.7-0.1-10.5c0.5-4.2,1.3-7.8,2.4-10.8c1.2-3.1,2.9-5.7,5-7.9
	c2.1-2.3,4.9-4.2,8.2-5.8c3.4-1.6,7.5-3,12.3-4.1l12-2.8c3.3-0.8,5.6-1.9,7.1-3.3c1-0.9,2.1-2.3,2.3-4.7c0.5-5-1.3-6.3-6.4-6.3
	c-0.8,0-4.1,0.6-8.4,1.3c-23.7,3.7-38.7,6.7-42.4,27l-8,41.2h-27.8L206.3,48.6L206.3,48.6z M274.8,119.9c-2.2,0-3.8-0.9-5-2.6
	c-1.1-1.8-1.5-4.1-1.2-7.1c0.3-3,1-5.3,2.1-7.1c1.1-1.9,2.8-3.3,5.3-4.4c2.3-1,9.5-2.9,10.5-4.1l-0.9,10.7c-0.6,4.9-1.7,8.6-3.4,11
	C280.6,118.7,278.1,119.9,274.8,119.9L274.8,119.9z"/>
<polygon class="st1" points="32.6,48.6 23.5,137.4 51.2,137.4 61.8,48.6 32.6,48.6 "/>
</svg>
